<svg width="24" height="25" viewBox="0 0 24 25" fill="none" xmlns="http://www.w3.org/2000/svg">
<g clip-path="url(#clip0_260_13929)">
<path fill-rule="evenodd" clip-rule="evenodd" d="M0 3.5C0 2.70435 0.316071 1.94129 0.87868 1.37868C1.44129 0.816071 2.20435 0.5 3 0.5L21 0.5C21.7956 0.5 22.5587 0.816071 23.1213 1.37868C23.6839 1.94129 24 2.70435 24 3.5V21.5C24 22.2956 23.6839 23.0587 23.1213 23.6213C22.5587 24.1839 21.7956 24.5 21 24.5H3C2.20435 24.5 1.44129 24.1839 0.87868 23.6213C0.316071 23.0587 0 22.2956 0 21.5V3.5ZM22.5 6.5H16.5V11H22.5V6.5ZM22.5 12.5H16.5V17H22.5V12.5ZM22.5 18.5H16.5V23H21C21.3978 23 21.7794 22.842 22.0607 22.5607C22.342 22.2794 22.5 21.8978 22.5 21.5V18.5ZM15 23V18.5H9V23H15ZM7.5 23V18.5H1.5V21.5C1.5 21.8978 1.65804 22.2794 1.93934 22.5607C2.22064 22.842 2.60218 23 3 23H7.5ZM1.5 17H7.5V12.5H1.5V17ZM1.5 11H7.5V6.5H1.5V11ZM9 6.5V11H15V6.5H9ZM15 12.5H9V17H15V12.5Z" fill="black"/>
</g>
<defs>
<clipPath id="clip0_260_13929">
<rect width="24" height="24" fill="white" transform="translate(0 0.5)"/>
</clipPath>
</defs>
</svg>
