<svg width="25" height="24" viewBox="0 0 25 24" fill="none" xmlns="http://www.w3.org/2000/svg">
<path fill-rule="evenodd" clip-rule="evenodd" d="M6.5 16.5H3.5V21H6.5V16.5ZM14 10.5H11V21H14V10.5ZM21.5 3H18.5V21H21.5V3ZM18.5 1.5C18.1022 1.5 17.7206 1.65804 17.4393 1.93934C17.158 2.22064 17 2.60218 17 3V21C17 21.3978 17.158 21.7794 17.4393 22.0607C17.7206 22.342 18.1022 22.5 18.5 22.5H21.5C21.8978 22.5 22.2794 22.342 22.5607 22.0607C22.842 21.7794 23 21.3978 23 21V3C23 2.60218 22.842 2.22064 22.5607 1.93934C22.2794 1.65804 21.8978 1.5 21.5 1.5H18.5ZM9.5 10.5C9.5 10.1022 9.65804 9.72064 9.93934 9.43934C10.2206 9.15804 10.6022 9 11 9H14C14.3978 9 14.7794 9.15804 15.0607 9.43934C15.342 9.72064 15.5 10.1022 15.5 10.5V21C15.5 21.3978 15.342 21.7794 15.0607 22.0607C14.7794 22.342 14.3978 22.5 14 22.5H11C10.6022 22.5 10.2206 22.342 9.93934 22.0607C9.65804 21.7794 9.5 21.3978 9.5 21V10.5ZM2 16.5C2 16.1022 2.15804 15.7206 2.43934 15.4393C2.72064 15.158 3.10218 15 3.5 15H6.5C6.89782 15 7.27936 15.158 7.56066 15.4393C7.84196 15.7206 8 16.1022 8 16.5V21C8 21.3978 7.84196 21.7794 7.56066 22.0607C7.27936 22.342 6.89782 22.5 6.5 22.5H3.5C3.10218 22.5 2.72064 22.342 2.43934 22.0607C2.15804 21.7794 2 21.3978 2 21V16.5Z" fill="black"/>
</svg>
