<svg width="25" height="25" viewBox="0 0 25 25" fill="none" xmlns="http://www.w3.org/2000/svg">
<g clip-path="url(#clip0_260_13885)">
<path fill-rule="evenodd" clip-rule="evenodd" d="M12.5 23C15.2848 23 17.9555 21.8938 19.9246 19.9246C21.8938 17.9555 23 15.2848 23 12.5C23 9.71523 21.8938 7.04451 19.9246 5.07538C17.9555 3.10625 15.2848 2 12.5 2C9.71523 2 7.04451 3.10625 5.07538 5.07538C3.10625 7.04451 2 9.71523 2 12.5C2 15.2848 3.10625 17.9555 5.07538 19.9246C7.04451 21.8938 9.71523 23 12.5 23V23ZM12.5 24.5C15.6826 24.5 18.7348 23.2357 20.9853 20.9853C23.2357 18.7348 24.5 15.6826 24.5 12.5C24.5 9.3174 23.2357 6.26516 20.9853 4.01472C18.7348 1.76428 15.6826 0.5 12.5 0.5C9.3174 0.5 6.26516 1.76428 4.01472 4.01472C1.76428 6.26516 0.5 9.3174 0.5 12.5C0.5 15.6826 1.76428 18.7348 4.01472 20.9853C6.26516 23.2357 9.3174 24.5 12.5 24.5V24.5Z" fill="black"/>
<path fill-rule="evenodd" clip-rule="evenodd" d="M11.7478 12.1895V2H13.2478V11.75H22.9978V13.25H12.8083L5.5288 20.531L4.4668 19.469L11.7478 12.1895Z" fill="black"/>
</g>
<defs>
<clipPath id="clip0_260_13885">
<rect width="24" height="24" fill="white" transform="translate(0.5 0.5)"/>
</clipPath>
</defs>
</svg>
