<svg width="25" height="24" viewBox="0 0 25 24" fill="none" xmlns="http://www.w3.org/2000/svg">
<g clip-path="url(#clip0_237_13930)">
<path fill-rule="evenodd" clip-rule="evenodd" d="M17.75 3.0001C17.4545 3.0001 17.1619 3.05829 16.889 3.17137C16.616 3.28444 16.3679 3.45017 16.159 3.65911C15.9501 3.86804 15.7843 4.11608 15.6713 4.38906C15.5582 4.66204 15.5 4.95462 15.5 5.2501C15.5 5.54557 15.5582 5.83815 15.6713 6.11113C15.7843 6.38412 15.9501 6.63216 16.159 6.84109C16.3679 7.05002 16.616 7.21575 16.889 7.32883C17.1619 7.4419 17.4545 7.5001 17.75 7.5001C18.3467 7.5001 18.919 7.26304 19.341 6.84109C19.7629 6.41913 20 5.84683 20 5.2501C20 4.65336 19.7629 4.08106 19.341 3.65911C18.919 3.23715 18.3467 3.0001 17.75 3.0001ZM14.075 4.5001C14.2471 3.65238 14.707 2.89024 15.3768 2.34281C16.0466 1.79539 16.885 1.49634 17.75 1.49634C18.615 1.49634 19.4534 1.79539 20.1232 2.34281C20.793 2.89024 21.2529 3.65238 21.425 4.5001L24.5 4.5001L24.5 6.0001L21.425 6.0001C21.2529 6.84781 20.793 7.60995 20.1232 8.15738C19.4534 8.70481 18.615 9.00386 17.75 9.00386C16.885 9.00386 16.0466 8.70481 15.3768 8.15738C14.707 7.60995 14.2471 6.84781 14.075 6.0001L0.5 6.0001L0.5 4.5001L14.075 4.5001ZM7.25 10.5001C6.65326 10.5001 6.08097 10.7371 5.65901 11.1591C5.23705 11.5811 5 12.1534 5 12.7501C5 13.3468 5.23705 13.9191 5.65901 14.3411C6.08097 14.763 6.65326 15.0001 7.25 15.0001C7.84674 15.0001 8.41903 14.763 8.84099 14.3411C9.26295 13.9191 9.5 13.3468 9.5 12.7501C9.5 12.1534 9.26295 11.5811 8.84099 11.1591C8.41903 10.7371 7.84674 10.5001 7.25 10.5001ZM3.575 12.0001C3.74714 11.1524 4.20705 10.3902 4.87681 9.84281C5.54656 9.29539 6.38498 8.99634 7.25 8.99634C8.11502 8.99634 8.95343 9.29539 9.62319 9.84281C10.293 10.3902 10.7529 11.1524 10.925 12.0001L24.5 12.0001L24.5 13.5001L10.925 13.5001C10.7529 14.3478 10.293 15.11 9.62319 15.6574C8.95343 16.2048 8.11502 16.5039 7.25 16.5039C6.38498 16.5039 5.54656 16.2048 4.8768 15.6574C4.20705 15.11 3.74713 14.3478 3.575 13.5001L0.499999 13.5001L0.499999 12.0001L3.575 12.0001ZM17.75 18.0001C17.1533 18.0001 16.581 18.2371 16.159 18.6591C15.7371 19.0811 15.5 19.6534 15.5 20.2501C15.5 20.8468 15.7371 21.4191 16.159 21.8411C16.581 22.263 17.1533 22.5001 17.75 22.5001C18.3467 22.5001 18.919 22.263 19.341 21.8411C19.7629 21.4191 20 20.8468 20 20.2501C20 19.6534 19.7629 19.0811 19.341 18.6591C18.919 18.2371 18.3467 18.0001 17.75 18.0001ZM14.075 19.5001C14.2471 18.6524 14.707 17.8902 15.3768 17.3428C16.0466 16.7954 16.885 16.4963 17.75 16.4963C18.615 16.4963 19.4534 16.7954 20.1232 17.3428C20.793 17.8902 21.2529 18.6524 21.425 19.5001L24.5 19.5001L24.5 21.0001L21.425 21.0001C21.2529 21.8478 20.793 22.61 20.1232 23.1574C19.4534 23.7048 18.615 24.0039 17.75 24.0039C16.885 24.0039 16.0466 23.7048 15.3768 23.1574C14.707 22.61 14.2471 21.8478 14.075 21.0001L0.499998 21.0001L0.499998 19.5001L14.075 19.5001Z" fill="black"/>
</g>
<defs>
<clipPath id="clip0_237_13930">
<rect width="24" height="24" fill="white" transform="translate(0.5)"/>
</clipPath>
</defs>
</svg>
